<svg id="logo-foxconn-s" xmlns="http://www.w3.org/2000/svg" xmlns:xlink="http://www.w3.org/1999/xlink" width="100.359" height="20" viewBox="0 0 100.359 20">
  <defs>
    <clipPath id="clip-path">
      <rect id="矩形_7809" data-name="矩形 7809" width="100.359" height="20" fill="none"/>
    </clipPath>
  </defs>
  <g id="组_14339" data-name="组 14339" clip-path="url(#clip-path)">
    <path id="路径_13641" data-name="路径 13641" d="M38.991,21.387l.249.747a8.013,8.013,0,0,1,.042-.955H37.248v.208h-.955v-4.9h.83c.083-.25.166-.457.208-.624l1.2.042-.291.582H39.9v2.823H37.289v.249h3.155v.706H37.289v.249h2.989c-.042.913-.083,1.619-.083,2.117-.083.789-.415,1.2-.955,1.2h-.913a6.842,6.842,0,0,0-.208-.872c.249,0,.5.042.789.042.208,0,.374-.166.374-.5l-.374.083c-.083-.374-.208-.706-.291-1.038Zm-3.238,2.076.747.125q.125-.872.249-1.993l-.623-.083c-.042-.249-.042-.539-.083-.871-.208.083-.374.125-.54.208V17.859h.623v-.913H34.092v.913h.5v3.28c-.249.082-.54.165-.747.248l.332.955c.581-.249,1.2-.5,1.91-.747-.125.706-.208,1.329-.332,1.868m-2.74-3.238a6.835,6.835,0,0,0,.872.374c-.208,1.2-.332,2.283-.457,3.2-.374-.125-.664-.249-.955-.332.166-.955.374-2.035.54-3.238m.042-2.118c.5.457.83.789,1.038,1l-.789.747c-.208-.291-.54-.623-.913-1.038Zm.083-2.158a8.893,8.893,0,0,1,.913.954l-.789.664c-.166-.166-.415-.5-.83-1Zm4.484,5.6-.581.042a12.222,12.222,0,0,1,0,1.744L37.7,23.3c0-.457-.042-1.08-.082-1.744m1.286-3.4h-1.7v.457h1.7Zm0-1h-1.7v.457h1.7Zm-1.08,4.442c.042.332.125.747.166,1.246l.581-.083c-.042-.415-.125-.83-.208-1.246Zm9.217-1.743h.747l.125-1.287-.374.374a9.662,9.662,0,0,0-.664-.83A8.052,8.052,0,0,0,48.5,15.866l1.121.125a4.529,4.529,0,0,1-.249.457h3.7v.872H48.83a4.777,4.777,0,0,1-.414.54h4.151l-.042,1.951h.623v.83h-.664l-.042,1.12h.623v.83h-.623a1.222,1.222,0,0,1-.249.83,1.1,1.1,0,0,1-.664.291c-.291.042-.872.042-1.744.083-.083-.291-.166-.581-.249-.83.5,0,.913.042,1.2.042a1.28,1.28,0,0,0,.415-.042c.125-.042.166-.125.208-.332H47.419l.166-1.909h-.664v-.872Zm3.9-.5-.54.5h1.08V18.731H50.034a9.112,9.112,0,0,1,.913.623m-1.619-.166.5-.457h-.872l-.125,1.121H50.2Zm-.042,1.951.5-.456h-1.08l-.125,1.12h1.495a6.071,6.071,0,0,0-.789-.664m1.661.166-.5.5h1l.042-1.12H50.034c.208.125.5.332.913.622m-4.816-5.4-.706.747a16.684,16.684,0,0,1,1.246,1.122l.747-.831c-.457-.374-.872-.747-1.287-1.038m-.249,2.118-.664.747c.623.581,1.038.955,1.2,1.121l.706-.872-1.246-1m.291,2.408c-.249,1.12-.5,2.158-.789,3.03a10.722,10.722,0,0,1,1.08.332q.374-1.619.747-2.989a4.417,4.417,0,0,1-1.038-.374m14.945.623,2.616-.249v-4.9h1.12v4.816l1.08-.083.083,1.037-1.2.125v2.076h-1.12V21.885l-2.491.208Zm-3.113.248a13.225,13.225,0,0,1,.374,1.287,12.907,12.907,0,0,0,.872-1.494v2.74h1.037V20.35c.208.208.415.457.706.788l.664-.622a11.457,11.457,0,0,0-1-.955l-.374.374v-.706h1.038V18.191H60.288v-1a8.568,8.568,0,0,0,1.163-.166l-.291-.954c-.955.124-1.951.248-3.072.331a5.686,5.686,0,0,1,.166.955l.955-.083v.913H58.047v1.038h1.121A6.05,6.05,0,0,1,58.005,21.3m4.317-4.815-.664.664a11.721,11.721,0,0,1,1.287,1.2l.747-.747a13.575,13.575,0,0,0-1.37-1.12m-.291,2.034-.664.706a9,9,0,0,1,1.287,1.163l.747-.747a8.962,8.962,0,0,0-1.37-1.121m16.647-.5H76.728V18.9h1.744v.955a5.892,5.892,0,0,1-1.453,2.075,9.3,9.3,0,0,0,1.827.747c-.249.457-.5.83-.664,1.08A9.075,9.075,0,0,1,76.1,22.633,10.332,10.332,0,0,1,73.864,23.8c-.166-.291-.374-.664-.623-1.038a9.49,9.49,0,0,0,1.951-.872,8.492,8.492,0,0,1-1.246-1.452l.913-.54a6.317,6.317,0,0,0,1.2,1.369,4.014,4.014,0,0,0,1.121-1.411H73.739v-1h1.785v-.872H73.739v-.955h1.785V15.866h1.163v1.163h1.951v1Zm-7.722-.706v1.038h.913v1.412l-1,.166L71,21.1l.872-.208v1.452a.4.4,0,0,1-.083.291.484.484,0,0,1-.291.083,2.554,2.554,0,0,1-.54-.042c.125.457.208.83.291,1.08A2.438,2.438,0,0,0,72.66,23.5a1.124,1.124,0,0,0,.249-.789V20.6l.706-.166c0-.249,0-.581.042-1.038l-.706.166v-1.2h.664V17.319H72.95V15.907H71.912v1.412Zm17.229-1.494c.125.249.291.539.415.789h2.616v.705h-2.7v.415h2.408V18.4H88.518v.415h2.408v.664H88.518v.415H91.3V20.6H85.571v.291h-1.08V18.565c-.166.125-.291.291-.457.415a7.539,7.539,0,0,0-.457-1.163,5.9,5.9,0,0,0,1.578-1.91l1.12.249a3,3,0,0,1-.29.5h1.369c-.083-.208-.208-.415-.291-.623Zm-2.574,1.951h1.868V17.36H85.612Zm0,1.037h1.868V18.4H85.612Zm0,1.08h1.868v-.415H85.612Zm1.494.913v.373H83.827v.789h2.284a8.993,8.993,0,0,1-2.491.913,5.735,5.735,0,0,1,.54.913,8.283,8.283,0,0,0,2.906-1.536v1.578h1.08V22.176a6.437,6.437,0,0,0,2.906,1.536c.166-.291.332-.581.581-.955a7.63,7.63,0,0,1-2.491-.83h2.367v-.789H88.144v-.373H87.106Zm9.757,3.03V16.2h7.265v7.6h-1.038v-.249H97.859V23.8h-1Zm6.227-6.809H97.859v5.729h5.231Zm-4.982,3.363.083.5c1.412-.042,2.782-.083,4.111-.083a1.289,1.289,0,0,1,.248.249l.54-.374c-.208-.208-.415-.415-.664-.623h.248V18.191h-1.743v-.249H102.8V17.4h-1.868v-.208h-.83V17.4H98.232v.54H100.1v.249H98.357v2.076h.83v-.208h.913v.332Zm0,.706v.581H98.9l-.291.249c.291.208.581.415.872.664l.54-.5a5.409,5.409,0,0,1-.623-.415h1.91v.083c0,.166-.125.249-.332.249h-.747c.083.291.125.5.166.623a7.076,7.076,0,0,0,1.038-.042c.5-.042.747-.291.747-.706v-.208h.705v-.54h-.705v-.207h-.83v.207H98.108Zm3.737-.747-.166-.166.291-.166h-1.08v.332Zm-.042-1.038h-.913V19.6h.913Zm-2.616.291h.913v-.291h-.913Zm2.616-.955h-.913V18.9h.913Zm-2.616.249h.913v-.249h-.913Z" transform="translate(-7.938 -3.879)" fill="#fff" fill-rule="evenodd"/>
    <path id="路径_13642" data-name="路径 13642" d="M73.018,4.658V7.15a2.685,2.685,0,0,0,2.657,2.7h5.6V8.187H75.965a.239.239,0,0,1-.249-.249v-3.9c0-.166.083-.291.249-.291h5.314V2h-5.6a2.623,2.623,0,0,0-2.657,2.657" transform="translate(-17.896 -0.491)" fill="#fff"/>
    <path id="路径_13643" data-name="路径 13643" d="M68.958,1.946H65.8L64.558,3.4a.852.852,0,0,1-1.2,0L62.108,1.946H59L61.9,5.267a.818.818,0,0,1-.042,1.2L59,9.834h3.113l1.246-1.453a.9.9,0,0,1,1.2.042L65.8,9.876h3.155L66.053,6.512a.852.852,0,0,1,0-1.2Z" transform="translate(-14.459 -0.477)" fill="#fff"/>
    <path id="路径_13644" data-name="路径 13644" d="M52.181,1.947H48.03a2.834,2.834,0,0,0-2.948,2.7v2.49a2.834,2.834,0,0,0,2.948,2.7H52.1a2.661,2.661,0,0,0,2.74-2.717V4.609a2.571,2.571,0,0,0-2.657-2.663M52.1,7.84a.278.278,0,0,1-.291.251H48.03a.278.278,0,0,1-.291-.249v-3.9a.284.284,0,0,1,.291-.291h3.819c.166,0,.291.084.291.251Z" transform="translate(-11.049 -0.477)" fill="#fff"/>
    <path id="路径_13645" data-name="路径 13645" d="M32.6,4.6V9.876h2.657V7.426a.587.587,0,0,1,.623-.622h4.567V5.434H35.5a.278.278,0,0,1-.249-.291V3.98A.278.278,0,0,1,35.5,3.69H40.86V1.946H35.09A2.565,2.565,0,0,0,32.6,4.6" transform="translate(-7.989 -0.477)" fill="#fff"/>
    <path id="路径_13646" data-name="路径 13646" d="M107.132,1.946h-7.058V9.834h2.657v-5.9a.239.239,0,0,1,.249-.249h3.9a.268.268,0,0,1,.249.249v5.9h2.657V4.6a2.762,2.762,0,0,0-2.657-2.657" transform="translate(-24.526 -0.477)" fill="#fff"/>
    <path id="路径_13647" data-name="路径 13647" d="M121.7,1.892h-7.058V9.78H117.3V3.926a.268.268,0,0,1,.249-.249h3.9a.268.268,0,0,1,.249.249v5.9h2.657V4.549A2.732,2.732,0,0,0,121.7,1.892" transform="translate(-28.098 -0.464)" fill="#fff"/>
    <path id="路径_13648" data-name="路径 13648" d="M92.594,1.947H88.443a2.834,2.834,0,0,0-2.948,2.7V7.136a2.834,2.834,0,0,0,2.948,2.7h4.068a2.661,2.661,0,0,0,2.74-2.717V4.609a2.572,2.572,0,0,0-2.657-2.663m-.332,1.7c.166,0,.291.084.291.251L92.523,7.84a.278.278,0,0,1-.291.251h-3.79a.278.278,0,0,1-.291-.249v-3.9a.284.284,0,0,1,.291-.291Z" transform="translate(-20.953 -0.477)" fill="#fff"/>
    <path id="路径_13649" data-name="路径 13649" d="M130.549,1.461A1.45,1.45,0,1,0,132,2.91a1.451,1.451,0,0,0-1.45-1.449m.952,2.4a.173.173,0,0,1-.081-.116.818.818,0,0,1-.019-.171l-.01-.269a.453.453,0,0,0-.068-.253.425.425,0,0,0-.182-.126.54.54,0,0,0,.214-.184.519.519,0,0,0,.076-.3.473.473,0,0,0-.285-.474.936.936,0,0,0-.38-.067h-.935V3.914h.279V3.054h.617a.594.594,0,0,1,.243.037.282.282,0,0,1,.146.263l.017.335a1.223,1.223,0,0,0,.014.159.234.234,0,0,0,.023.066h.268a1.334,1.334,0,0,1-.888.343,1.347,1.347,0,1,1,.952-.395m-.463-1.112a.521.521,0,0,1-.3.077h-.626V2.141h.662a.505.505,0,0,1,.221.041.3.3,0,0,1,.156.292.313.313,0,0,1-.111.276" transform="translate(-31.64 -0.358)" fill="#fff"/>
    <path id="路径_13650" data-name="路径 13650" d="M11.126,2.187v5.48H7.431V2.187H.042L0,20.5H7.39V14.974h3.653l.042,5.48h7.39V2.187Zm5.48,16.44H12.953V14.932a1.849,1.849,0,0,0-1.785-1.744H7.431a1.9,1.9,0,0,0-1.868,1.744v3.736H1.868V4.014H5.563v5.48h8.262a3.139,3.139,0,0,1,2.781,2.823Z" transform="translate(0 -0.536)" fill="#d93734" fill-rule="evenodd"/>
    <path id="路径_13651" data-name="路径 13651" d="M27,0a1.58,1.58,0,1,0,1.581,1.58A1.582,1.582,0,0,0,27,0m1.037,2.617a.187.187,0,0,1-.088-.126.925.925,0,0,1-.021-.186l-.011-.294a.489.489,0,0,0-.074-.276.467.467,0,0,0-.2-.137.59.59,0,0,0,.233-.2.565.565,0,0,0,.083-.322.517.517,0,0,0-.31-.517,1.031,1.031,0,0,0-.415-.072H26.223V2.675h.3V1.736H27.2a.661.661,0,0,1,.265.04.308.308,0,0,1,.159.288l.018.365a1.316,1.316,0,0,0,.015.173.251.251,0,0,0,.025.073h.292a1.285,1.285,0,1,1,.069-.057m-.5-1.212a.569.569,0,0,1-.328.083h-.682V.741h.721a.554.554,0,0,1,.242.045.324.324,0,0,1,.169.319.339.339,0,0,1-.121.3" transform="translate(-6.231 0)" fill="#c12327"/>
  </g>
</svg>
